<svg xmlns="http://www.w3.org/2000/svg" width="243" height="52" viewBox="0 0 243 52">
  <defs>
    <style>
      .cls-1 {
        fill: #76c38f;
      }

      .cls-1, .cls-2 {
        fill-rule: evenodd;
      }

      .cls-2 {
        fill: #fff;
      }
    </style>
  </defs>
  <path id="Tagline" class="cls-1" d="M0.368,48H1.935V42.742H3.411c1.422,0.054,2.071.684,2.431,2.359a15.721,15.721,0,0,0,.81,2.9h1.62a19.312,19.312,0,0,1-.936-3.331A3.025,3.025,0,0,0,5.554,42.22V42.166a3.187,3.187,0,0,0,2.287-3.1,3.023,3.023,0,0,0-.954-2.3,4.963,4.963,0,0,0-3.511-.99,16.321,16.321,0,0,0-3.007.252V48ZM1.935,37.125a6.44,6.44,0,0,1,1.548-.144c1.656,0.018,2.791.7,2.791,2.269,0,1.386-1.062,2.3-2.737,2.3h-1.6V37.125Zm15.384,6.806a5.978,5.978,0,0,0,.054-0.738c0-1.6-.756-4.105-3.6-4.105-2.539,0-4.087,2.071-4.087,4.7A4.047,4.047,0,0,0,13.97,48.18a7.057,7.057,0,0,0,2.9-.54L16.6,46.506a5.731,5.731,0,0,1-2.413.45A2.792,2.792,0,0,1,11.2,43.931h6.122Zm-6.1-1.134a2.626,2.626,0,0,1,2.431-2.575,2.256,2.256,0,0,1,2.2,2.575H11.215Zm8.1,5.2H20.9V42.76a2.279,2.279,0,0,1,.108-0.738,2.251,2.251,0,0,1,2.125-1.62c1.495,0,2.017,1.17,2.017,2.575V48h1.585V42.8c0-2.989-1.873-3.709-3.079-3.709a3.2,3.2,0,0,0-2.881,1.639H20.737l-0.09-1.44h-1.4c0.054,0.72.072,1.458,0.072,2.359V48ZM35.256,35.216v5.2H35.22a2.914,2.914,0,0,0-2.629-1.332c-2.125,0-3.925,1.783-3.907,4.681,0,2.647,1.62,4.429,3.727,4.429a3.224,3.224,0,0,0,2.971-1.711h0.036L35.49,48h1.422c-0.054-.594-0.072-1.476-0.072-2.251V35.216H35.256Zm0,9.129a2.748,2.748,0,0,1-.072.684,2.382,2.382,0,0,1-2.323,1.891c-1.711,0-2.575-1.459-2.575-3.223,0-1.927.972-3.367,2.611-3.367a2.33,2.33,0,0,1,2.287,1.837,2.792,2.792,0,0,1,.072.666v1.512Zm11.062-.414a5.978,5.978,0,0,0,.054-0.738c0-1.6-.756-4.105-3.6-4.105-2.539,0-4.087,2.071-4.087,4.7A4.047,4.047,0,0,0,42.97,48.18a7.057,7.057,0,0,0,2.9-.54L45.6,46.506a5.731,5.731,0,0,1-2.413.45A2.792,2.792,0,0,1,40.2,43.931h6.122Zm-6.1-1.134a2.626,2.626,0,0,1,2.431-2.575,2.256,2.256,0,0,1,2.2,2.575H40.215ZM47.324,48H54.4V46.74H49.3V46.7c0.4-.45.756-0.882,1.116-1.368l3.889-5.059,0.018-.99H47.684v1.278H52.4V40.6c-0.4.468-.756,0.882-1.134,1.35l-3.943,5.131V48Zm7.91-8.715L58.547,48H60.06l3.421-8.715H61.824l-1.692,4.9c-0.288.792-.54,1.512-0.738,2.233H59.339a22.416,22.416,0,0,0-.7-2.233l-1.71-4.9H55.234Zm17.084,4.645a5.978,5.978,0,0,0,.054-0.738c0-1.6-.756-4.105-3.6-4.105-2.539,0-4.087,2.071-4.087,4.7A4.047,4.047,0,0,0,68.97,48.18a7.057,7.057,0,0,0,2.9-.54L71.6,46.506a5.731,5.731,0,0,1-2.413.45A2.792,2.792,0,0,1,66.2,43.931h6.122Zm-6.1-1.134a2.626,2.626,0,0,1,2.431-2.575,2.256,2.256,0,0,1,2.2,2.575H66.215Zm3.259-7.274L67.889,38.1h1.134l2.2-2.575H69.474ZM74.314,48H75.9V42.76a2.279,2.279,0,0,1,.108-0.738,2.251,2.251,0,0,1,2.125-1.62c1.495,0,2.017,1.17,2.017,2.575V48h1.585V42.8c0-2.989-1.873-3.709-3.079-3.709a3.2,3.2,0,0,0-2.881,1.639H75.737l-0.09-1.44h-1.4c0.054,0.72.072,1.458,0.072,2.359V48Zm8.848-8.715,3.223,8.03a1.382,1.382,0,0,1,.108.414,1.137,1.137,0,0,1-.126.378,4.8,4.8,0,0,1-1.332,1.765,4.19,4.19,0,0,1-1.386.774l0.4,1.332a4.293,4.293,0,0,0,1.945-1.026c1.08-.936,1.855-2.467,2.989-5.456l2.377-6.212H89.68L87.952,44.4c-0.216.63-.4,1.3-0.558,1.819H87.357C87.213,45.7,87,45.011,86.8,44.435l-1.908-5.149H83.162Zm13.206,8.679a25.291,25.291,0,0,0,2.845.144,7.476,7.476,0,0,0,5.366-1.746,6.419,6.419,0,0,0,1.746-4.717,5.59,5.59,0,0,0-1.71-4.357A6.95,6.95,0,0,0,99.7,35.774a22.444,22.444,0,0,0-3.331.252V47.964Zm1.567-10.785a8.894,8.894,0,0,1,1.837-.162c3.313,0,4.934,1.819,4.916,4.681,0,3.277-1.819,5.15-5.168,5.15a9.881,9.881,0,0,1-1.584-.09V37.179Zm12.918,6.68c0,2.377-.828,3.007-2.233,3.007a3.735,3.735,0,0,1-1.314-.234l-0.234,1.278a5.072,5.072,0,0,0,1.675.288c2.088,0,3.673-.99,3.673-4.213v-8.12h-1.567v7.994Zm15.465,0.072a5.978,5.978,0,0,0,.054-0.738c0-1.6-.756-4.105-3.6-4.105-2.538,0-4.087,2.071-4.087,4.7a4.047,4.047,0,0,0,4.285,4.393,7.056,7.056,0,0,0,2.9-.54l-0.27-1.134a5.728,5.728,0,0,1-2.412.45,2.792,2.792,0,0,1-2.989-3.025h6.121Zm-6.1-1.134a2.626,2.626,0,0,1,2.43-2.575,2.256,2.256,0,0,1,2.2,2.575h-4.627Zm3.259-7.274L121.889,38.1h1.134l2.2-2.575h-1.746ZM127.7,47.586a4.971,4.971,0,0,0,2.449.594c2.071,0,3.259-1.08,3.259-2.611,0-1.3-.774-2.053-2.287-2.629-1.134-.432-1.656-0.756-1.656-1.476a1.272,1.272,0,0,1,1.458-1.188,3.4,3.4,0,0,1,1.783.5l0.4-1.152a4.351,4.351,0,0,0-2.143-.54c-1.872,0-3.007,1.152-3.007,2.557,0,1.044.739,1.909,2.3,2.467,1.17,0.432,1.62.846,1.62,1.6,0,0.72-.54,1.3-1.692,1.3a4.154,4.154,0,0,1-2.089-.63ZM139.368,48h1.567V43.139a5.384,5.384,0,0,0,1.26.108,5.027,5.027,0,0,0,3.709-1.332,3.569,3.569,0,0,0,.937-2.593,3.26,3.26,0,0,0-1.063-2.539,4.984,4.984,0,0,0-3.4-1.008,18.173,18.173,0,0,0-3.007.234V48Zm1.567-10.857a6.564,6.564,0,0,1,1.476-.126c1.729,0,2.863.774,2.863,2.377,0,1.675-1.152,2.593-3.043,2.593a5.252,5.252,0,0,1-1.3-.126V37.143ZM155.58,48a12.274,12.274,0,0,1-.144-2.089V42.652c0-1.746-.648-3.565-3.313-3.565a5.411,5.411,0,0,0-2.863.774l0.36,1.044a4.346,4.346,0,0,1,2.269-.648,1.8,1.8,0,0,1,1.981,2.017v0.18c-3.367-.018-5.24,1.134-5.24,3.241a2.483,2.483,0,0,0,2.665,2.5,3.247,3.247,0,0,0,2.665-1.3h0.054L154.14,48h1.44Zm-1.674-2.935a1.654,1.654,0,0,1-.09.5,2.169,2.169,0,0,1-2.107,1.458,1.4,1.4,0,0,1-1.494-1.512c0-1.693,1.962-2,3.691-1.963v1.512ZM158.314,48h1.567V43.355a4.461,4.461,0,0,1,.072-0.738,2.222,2.222,0,0,1,2.125-2.035,2.379,2.379,0,0,1,.54.054V39.141a1.709,1.709,0,0,0-.45-0.054A2.614,2.614,0,0,0,159.755,41h-0.072l-0.054-1.71h-1.387c0.054,0.81.072,1.692,0.072,2.719v6Zm6.36-10.8v2.089h-1.35v1.206h1.35v4.753a3.229,3.229,0,0,0,.613,2.269,2.195,2.195,0,0,0,1.71.666,3.883,3.883,0,0,0,1.4-.216l-0.072-1.188a3.527,3.527,0,0,1-.919.108c-0.882,0-1.188-.612-1.188-1.692v-4.7h2.269V39.285h-2.269v-2.5Zm4.488,2.089,3.223,8.03a1.382,1.382,0,0,1,.108.414,1.137,1.137,0,0,1-.126.378,4.8,4.8,0,0,1-1.332,1.765,4.2,4.2,0,0,1-1.387.774l0.4,1.332a4.294,4.294,0,0,0,1.945-1.026c1.08-.936,1.854-2.467,2.989-5.456l2.376-6.212H175.68L173.951,44.4c-0.216.63-.4,1.3-0.558,1.819h-0.036c-0.144-.522-0.36-1.206-0.558-1.783l-1.908-5.149h-1.729Zm8.54,8.3a4.971,4.971,0,0,0,2.449.594c2.071,0,3.259-1.08,3.259-2.611,0-1.3-.774-2.053-2.287-2.629-1.134-.432-1.656-0.756-1.656-1.476a1.272,1.272,0,0,1,1.458-1.188,3.4,3.4,0,0,1,1.783.5l0.4-1.152a4.351,4.351,0,0,0-2.143-.54c-1.872,0-3.007,1.152-3.007,2.557,0,1.044.739,1.909,2.3,2.467,1.17,0.432,1.62.846,1.62,1.6,0,0.72-.54,1.3-1.692,1.3a4.154,4.154,0,0,1-2.089-.63ZM184.324,48H191.4V46.74h-5.095V46.7c0.4-.45.756-0.882,1.116-1.368l3.889-5.059,0.018-.99h-6.644v1.278H189.4V40.6c-0.4.468-.757,0.882-1.135,1.35l-3.943,5.131V48Zm15.994-4.069a5.978,5.978,0,0,0,.054-0.738c0-1.6-.756-4.105-3.6-4.105-2.538,0-4.087,2.071-4.087,4.7a4.047,4.047,0,0,0,4.285,4.393,7.056,7.056,0,0,0,2.9-.54l-0.27-1.134a5.728,5.728,0,0,1-2.412.45,2.792,2.792,0,0,1-2.989-3.025h6.121Zm-6.1-1.134a2.626,2.626,0,0,1,2.43-2.575,2.256,2.256,0,0,1,2.2,2.575h-4.627Zm8.1,5.2h1.567V43.355a4.461,4.461,0,0,1,.072-0.738,2.222,2.222,0,0,1,2.125-2.035,2.379,2.379,0,0,1,.54.054V39.141a1.709,1.709,0,0,0-.45-0.054A2.614,2.614,0,0,0,203.755,41h-0.072l-0.054-1.71h-1.387c0.054,0.81.072,1.692,0.072,2.719v6Zm4.92-8.715L210.547,48h1.513l3.421-8.715h-1.657l-1.692,4.9c-0.289.792-.541,1.512-0.739,2.233h-0.054a22.413,22.413,0,0,0-.7-2.233l-1.71-4.9h-1.693Zm17.084,4.645a5.978,5.978,0,0,0,.054-0.738c0-1.6-.756-4.105-3.6-4.105-2.538,0-4.087,2.071-4.087,4.7a4.047,4.047,0,0,0,4.285,4.393,7.056,7.056,0,0,0,2.9-.54l-0.27-1.134a5.728,5.728,0,0,1-2.412.45,2.792,2.792,0,0,1-2.989-3.025h6.121Zm-6.1-1.134a2.626,2.626,0,0,1,2.43-2.575,2.256,2.256,0,0,1,2.2,2.575h-4.627Zm7.109,5.2H232.4V46.74h-5.095V46.7c0.4-.45.756-0.882,1.116-1.368l3.889-5.059,0.018-.99h-6.644v1.278H230.4V40.6c-0.4.468-.757,0.882-1.135,1.35l-3.943,5.131V48Zm12.681-8.913c-2.412,0-4.321,1.711-4.321,4.627a4.143,4.143,0,0,0,4.177,4.483,4.259,4.259,0,0,0,4.34-4.627C242.2,40.906,240.508,39.087,238.005,39.087Zm-0.036,1.188c1.873,0,2.611,1.873,2.611,3.349,0,1.963-1.134,3.385-2.647,3.385-1.548,0-2.646-1.44-2.646-3.349C235.287,42,236.1,40.276,237.969,40.276Zm-0.684-4.753-1.422,2.467h0.99l1.981-2.467h-1.549Zm2.593,0-1.422,2.467h0.99l2-2.467h-1.567Z"/>
  <path id="Name" class="cls-2" d="M24.812,8.972a9.778,9.778,0,0,0-3.888-6.3A13.015,13.015,0,0,0,13,.368,13.513,13.513,0,0,0,6.272,2.006,11.425,11.425,0,0,0,1.754,6.578a13.706,13.706,0,0,0-1.6,6.678,13.78,13.78,0,0,0,1.6,6.714A11.384,11.384,0,0,0,6.29,24.542a13.608,13.608,0,0,0,6.75,1.638,13.133,13.133,0,0,0,5.58-1.134,12.457,12.457,0,0,0,4.05-2.9,12.921,12.921,0,0,0,2.43-3.78v-6.84H11.924V16.6h7.092a5.442,5.442,0,0,1-5.292,3.348,6.3,6.3,0,0,1-4.77-1.71,6.934,6.934,0,0,1-1.638-4.986,6.75,6.75,0,0,1,1.53-4.644A5.313,5.313,0,0,1,13.04,6.884a5.456,5.456,0,0,1,2.5.54,4.093,4.093,0,0,1,1.674,1.548h7.6Zm3.2-8.352V26h7.056V0.62H28.016Zm34.508,0H55.468V14.984L46.072,0.62H39.016V26h7.056V11.816L55.468,26h7.056V0.62ZM84.44,26h7.452L82.676,0.62H74.54L65.288,26H72.7l1.368-4.14h9Zm-8.568-9.54,2.7-8.208,2.736,8.208H75.872Zm34.72,9.792a11.424,11.424,0,0,0,5.058-1.044,7.783,7.783,0,0,0,3.276-2.844A7.471,7.471,0,0,0,120.06,18.3a5.831,5.831,0,0,0-1.134-3.69,8.127,8.127,0,0,0-2.7-2.268,30.132,30.132,0,0,0-3.978-1.638q-1.62-.575-2.448-0.954a5.118,5.118,0,0,1-1.386-.9,1.643,1.643,0,0,1-.558-1.242,1.728,1.728,0,0,1,.5-1.332,1.831,1.831,0,0,1,1.3-.468,2.522,2.522,0,0,1,1.71.576,2.261,2.261,0,0,1,.7,1.728h7.668a7.446,7.446,0,0,0-2.826-5.814,11.173,11.173,0,0,0-7.074-2.07,12.635,12.635,0,0,0-4.9.9,7.576,7.576,0,0,0-3.384,2.646,7.121,7.121,0,0,0-1.224,4.194,6.289,6.289,0,0,0,1.134,3.906,7.7,7.7,0,0,0,2.664,2.268,30.393,30.393,0,0,0,4.014,1.6,18.414,18.414,0,0,1,3.384,1.368,1.91,1.91,0,0,1,1.044,1.728,1.609,1.609,0,0,1-.63,1.35,2.865,2.865,0,0,1-3.366-.126,2.807,2.807,0,0,1-.792-1.944H100.26a7.61,7.61,0,0,0,3.06,6.03,11.9,11.9,0,0,0,7.272,2.106h0ZM138.136,0.62l-4.464,9.792L129.208,0.62h-8.064l8.928,17.316V26h7.092V17.936L146.092,0.62h-7.956Zm16.936,0h-7.056V26h14.94V20.6h-7.884V0.62Zm28.116,0-5.724,18.324L171.7,0.62h-7.56L172.928,26h9.036l8.748-25.38h-7.524Zm26.064,5.652V0.62H193.016V26h16.236V20.348h-9.18V15.776h8.1V10.412h-8.1V6.272h9.18ZM233.752,26l-5.724-9.9a7.681,7.681,0,0,0,4.158-2.79,7.556,7.556,0,0,0,1.422-4.554,8.11,8.11,0,0,0-1.08-4.158,7.442,7.442,0,0,0-3.2-2.916A11.509,11.509,0,0,0,224.14.62H213.016V26h7.056V16.64h0.756l5.04,9.36h7.884ZM220.072,6.524h3.492a2.992,2.992,0,0,1,2.142.7,2.532,2.532,0,0,1,.738,1.926,2.6,2.6,0,0,1-.72,1.98,3.029,3.029,0,0,1-2.16.684h-3.492V6.524Z"/>
</svg>
